<svg class="svg-icon-lib" xmlns="http://www.w3.org/2000/svg">
<symbol id="css-icon" viewBox="0 0 128 128"><title>css-icon icon</title><path d="M8 0l10.2 115.2L64 128l45.8-12.8L120 0H8zm90.2 37.7l-1.3 14.5L93 95.5l-29 8-29-8-2-22.7h14.2l1.1 11.8L64 88.9l15.8-4.3L81.9 65l-49.7.1-1.4-13.4 52.3-.6 1.1-14.4-54.7.2-.9-13.4h70.9l-1.3 14.2z" fill="#2196f3"/></symbol>
<symbol id="git-icon" viewBox="0 0 128 128"><title>git-icon icon</title><path d="M125.6 58.3L69.7 2.4C66.5-.8 61.3-.8 58 2.4L46.4 14l14.7 14.7c3.4-1.2 7.3-.4 10.1 2.3 2.7 2.7 3.5 6.7 2.3 10.1l14.2 14.2c3.4-1.2 7.4-.4 10.1 2.3 3.8 3.8 3.8 10 0 13.9-3.8 3.8-10 3.8-13.9 0-2.9-2.9-3.6-7.1-2.1-10.7L68.6 47.7v34.8c.9.5 1.8 1.1 2.6 1.9 3.8 3.8 3.8 10 0 13.9-3.8 3.8-10 3.8-13.9 0-3.8-3.8-3.8-10 0-13.9.9-.9 2-1.7 3.2-2.1V47.1c-1.2-.5-2.3-1.2-3.2-2.1-2.9-2.9-3.6-7.2-2.1-10.7L40.7 19.7 2.4 58c-3.2 3.2-3.2 8.4 0 11.7l55.9 55.9c3.2 3.2 8.4 3.2 11.7 0L125.6 70c3.2-3.3 3.2-8.5 0-11.7z"/></symbol>
<symbol id="gulp-icon" viewBox="0 0 128 128"><title>gulp-icon icon</title><path d="M63.7 100c-7.5 0-13.3-1.1-16.1-1.8-1.9-.5-3.4-.9-4.6-1.4l3.7 6.3 1.5 19.8c0 2.2 7.1 4 15.8 4s15.8-1.8 15.8-4l1.2-20.1 3.5-6.2c-1.2.5-2.7 1-4.7 1.4-2.7.9-8.5 2-16.1 2zm20.9-64.6c-5.5.8-12.8 1.2-20.6 1.2-7.8 0-15.1-.4-20.6-1.2-2.7-.4-4.9-.8-6.4-1.3-.4-.1-1-.3-1.6-.7l3.4 31.4c.2-.5.3-1.1.5-1.6.4-1.1.9-2.2 1.4-3.2.5-1.1 1.1-2 1.7-3 .6-.9 1.3-1.8 2-2.6s1.4-1.5 2.2-2c.7-.6 1.5-1 2.2-1.3.8-.3 1.5-.5 2.2-.5.8 0 1.7.2 2.5.7.8.5 1.5 1.2 2.2 2.2.2.2.3.5.3.7 0 .2.1.5.1.7 0 .5-.1.9-.4 1.2-.2.3-.5.4-.8.4-.3 0-.6-.2-.8-.5-.3-.3-.5-.8-.9-1.3-.3-.5-.6-.9-1-1.1-.4-.2-.7-.4-1.2-.4-.7 0-1.4.3-2.1.8-.7.5-1.5 1.3-2.2 2.1-.7.9-1.4 1.9-2.1 3-.7 1.1-1.3 2.3-1.8 3.5-.5 1.2-.9 2.4-1.2 3.5s-.5 2.2-.5 3.1c0 .3 0 .6.1 1 0 .3.1.6.2.9.1.3.3.5.5.7.2.2.5.3.8.3.3 0 .7-.1 1.2-.3.4-.2.9-.5 1.4-.9.5-.4.9-.8 1.4-1.3.5-.5.9-1 1.3-1.4.4-.5.8-1 1.1-1.4.3-.4.6-.8.7-1.2l1.3-3.9c.2-.4.4-.7.6-.9.3-.2.5-.3.8-.3.1 0 .3 0 .4.1.1 0 .2.1.4.2.1.1.2.2.2.4.1.1.1.3.1.5 0 .5 0 1-.1 1.5s-.2.9-.4 1.4c-.1.4-.3.9-.5 1.3s-.4.9-.5 1.4c0 .1-.1.2-.2.5s-.2.7-.4 1.1c-.1.4-.3.9-.5 1.5-.2.5-.3 1.1-.5 1.7-.2.6-.3 1.1-.5 1.7-.2.5-.3 1-.4 1.5-.1.4-.2.8-.3 1.1-.1.3-.1.5-.2.5 0 .2-.1.4-.2.6-.1.2-.2.4-.4.6-.1.2-.3.4-.5.5-.2.1-.3.2-.5.2-.3 0-.5-.1-.7-.3-.1-.2-.2-.6-.2-1.1V77v-.2c0-.2.1-.5.2-1s.3-1 .5-1.6c.2-.6.4-1.2.6-1.9.2-.7.4-1.2.6-1.8-.5.6-1 1.1-1.6 1.6l-1.8 1.5c-.6.4-1.2.8-1.8 1.1-.6.3-1.2.4-1.8.4-.7 0-1.2-.1-1.7-.4-.1-.1-.2-.1-.2-.2l1.9 19.9c.5 1.2 9.8 4.3 22.1 4.3s21.6-3 22.1-4.3l2.7-23.7c-.2.2-.4.4-.7.6-.8.7-1.5 1.4-2.2 1.9-.7.5-1.4.9-2 1.2-.7.3-1.4.4-2.1.4-.7 0-1.3-.2-1.6-.5-.4-.3-.6-.7-.6-1.3v-.1c0-.3.2-.7.4-1.1.3-.4.6-.9.9-1.3.4-.5.7-.9 1.1-1.4.4-.5.8-.9 1.1-1.3.3-.4.6-.8.8-1.2.2-.4.3-.6.3-.9 0-.1 0-.2-.1-.3-.1-.1-.2-.1-.5-.1-.4 0-.8.1-1.2.3-.4.2-.8.5-1.2.8-.4.3-.8.7-1.1 1.1-.4.4-.7.9-1 1.3-.3.5-.6.9-.9 1.4s-.5.9-.7 1.3c-.1.1-.1.3-.2.5s-.2.5-.3.7c-.1.3-.2.6-.4.9-.1.3-.3.6-.4.8-.1.3-.2.5-.3.7-.1.2-.2.3-.2.4 0 .1-.1.3-.2.6s-.2.6-.4 1c-.1.4-.3.8-.4 1.2-.2.4-.3.8-.4 1.2-.1.4-.3.7-.4 1-.1.3-.2.5-.2.6-.1.3-.2.6-.3.8-.1.3-.3.5-.4.7-.2.2-.3.3-.6.5-.2.1-.4.2-.7.2-.3 0-.6-.1-.8-.2-.2-.2-.3-.5-.3-.9 0-.2 0-.4.1-.7.1-.2.1-.5.2-.7.1-.2.2-.4.3-.7.1-.2.2-.4.2-.6l1.5-3.3 1.5-3.3c.1-.2.2-.4.3-.7l-.1.1c-.6.6-1.2 1.1-1.8 1.5-.6.4-1.2.8-1.8 1.1-.6.3-1.2.4-1.7.4-.4 0-.7-.1-1-.2-.3-.1-.5-.3-.6-.5-.2-.2-.3-.5-.3-.7v-.3c-.2.1-.3.3-.5.4-.6.4-1.1.7-1.7 1-.6.2-1.1.4-1.5.4-.4 0-.8-.1-1.1-.4-.3-.3-.4-.8-.4-1.5 0-.5.1-1.1.2-1.8-.2.4-.5.9-.9 1.3l-1.2 1.2c-.5.4-1 .7-1.6.9-.6.2-1.2.3-1.9.3-.3 0-.6 0-.9-.1-.3-.1-.5-.2-.7-.4-.2-.2-.4-.4-.5-.8-.1-.3-.2-.7-.2-1.2 0 0 0-.2.1-.5 0-.3.2-.8.4-1.5s.5-1.6.9-2.7 1-2.5 1.8-4.1c.2-.4.4-.7.7-.9.3-.2.5-.3.8-.3.1 0 .3 0 .4.1.1 0 .3.1.4.2l.3.3c.1.1.1.3.1.4v.3c0 .2-.1.4-.3.7-.2.3-.3.7-.5 1-.2.4-.4.8-.7 1.3-.2.5-.4.9-.6 1.4s-.4 1-.5 1.5c-.1.5-.2 1-.2 1.5 0 .2 0 .4.1.5.1.2.2.2.5.2.6 0 1.2-.2 1.7-.6.6-.4 1.1-.9 1.5-1.5.5-.6.9-1.2 1.3-1.9s.7-1.3.9-1.9c.2-.4.3-.8.5-1.2.1-.4.3-.8.4-1.2.2-.4.3-.7.5-.9.2-.2.5-.4.8-.4.3 0 .6.1.8.4.2.3.3.6.3.9 0 .2-.1.5-.2.8-.1.3-.3.7-.5 1.2-.2.4-.4.9-.6 1.4l-.6 1.5c-.2.5-.4 1-.5 1.5-.1.5-.2 1-.2 1.4 0 .4.2.6.6.6.3 0 .6-.1 1.1-.3s.9-.5 1.4-.8c.1-.1.2-.2.4-.3.1-.5.3-1 .5-1.5.3-.9.7-1.7 1-2.6.3-.8.6-1.6.9-2.3L74 53.7c.2-.4.4-.7.7-.9.3-.2.6-.3.9-.3.3 0 .6.1.8.3.2.2.4.5.4.9 0 .2 0 .4-.1.6-.1.2-.2.5-.3.7-.2.5-.5 1.2-.8 1.9-.3.7-.7 1.6-1 2.4-.4.9-.7 1.8-1.1 2.8-.4 1-.8 1.9-1.1 2.8-.4.9-.7 1.8-1 2.6-.3.8-.6 1.5-.8 2.1-.1.3-.2.5-.3.9-.1.3-.1.6-.1.9 0 .2 0 .3.1.4s-.3.2-.1.2c.2 0 .4-.1.7-.2.3-.1.6-.3 1-.5.3-.2.7-.5 1.1-.8.4-.3.7-.6 1.1-.9.4-.3.7-.6 1-.9l.9-.9c.1-.1.1-.1.2-.1.2-.5.3-.9.4-1.4.1-.2.2-.5.3-.8.1-.4.3-.7.4-1.1.2-.4.4-.7.6-.9.2-.3.4-.4.7-.4.4 0 .6.1.8.3.2.2.3.4.3.8v.3c0 .1 0 .3-.1.5 0 .2-.1.3-.1.5 0 .1-.1.2-.1.3.3-.4.7-.7 1.1-1.1.4-.4.8-.7 1.2-1 .4-.3.9-.5 1.3-.7.4-.2.9-.3 1.3-.3.3 0 .6 0 .9.1.3.1.6.2.8.4l.6.6c.1.3.2.6.2.9 0 .5-.1.9-.3 1.4-.2.5-.5 1-.9 1.5-.3.5-.7 1-1.1 1.5-.4.5-.8.9-1.1 1.3-.4.4-.6.7-.9 1-.2.3-.4.5-.4.6 0 .1 0 .2.1.3.1.1.2.1.4.1s.4-.1.7-.3c.3-.2.7-.5 1.3-.9.6-.4 1.3-1 2.1-1.8.6-.5 1.3-1.1 2-1.8l3.7-34.2c-.6.3-1.2.5-1.6.7-1.3.5-3.4 1-6.2 1.3zM64 27.3c-16 0-29 1.8-29 4s13 4 29 4 29-1.8 29-4-13-4-29-4zm11.6 5.2c0 .5-1.5.9-3.4.9s-3.4-.4-3.4-.9 1.5-.9 3.4-.9c1.8-.1 3.4.4 3.4.9z"/><path d="M69.4 32.1c-.1 0-.1 0 0 0 0 .4 1.2.7 2.7.7 1.5 0 2.8-.3 2.8-.6l3.6-14.6L92.9 2.3c.3-.3-.3-1.4-1.3-2.3s-2.1-1.2-2.5-.9L73.7 15.3l-4.3 16.8z"/></symbol>
<symbol id="html-icon" viewBox="0 0 128 128"><title>html-icon icon</title><path d="M8 4.2l8.3 106.3c.1 1.6 1.2 3 2.7 3.4l43.8 13.9c.8.2 1.6.2 2.4 0l43.8-13.9c1.5-.5 2.6-1.8 2.7-3.4L120 4.2c.2-2.3-1.6-4.2-3.9-4.2H11.9C9.6 0 7.8 2 8 4.2zm90.7 33H44.5l1.6 15.1h51.4l-3.4 43-30.1 9.5-30.1-9.5-1.8-22.4h15.8v11l16.5 4.4 16.4-4.4 1.3-17.5H31.6l-3.4-42.8h71.5l-1 13.6z" fill="#fc490b"/></symbol>
<symbol id="jquery-icon" viewBox="0 0 128 128"><title>jquery-icon icon</title><path d="M125.1 94.9l-.5 1.5c-9.7 19.2-27.1 31-51.7 31.5-11.6.2-22.5-2.8-29.7-5.9-15.5-7-28.5-20-35.7-33.9-10.3-19.9-12-47.7 9.2-68.4.3 0-2.6 4.5-2.3 4.5l-.5 1.9c-15.3 48.4 31.9 89.8 77.6 85 10.8-1.4 24.9-7.5 33.6-16.2"/><path d="M97.3 74.9c11.6.1 23.6-5.4 30.7-13-6.2 16-24.3 26.2-48.6 23C59.1 82.2 39.8 61.6 37.8 41 36.4 26 41.5 17 50 6.2c-2.9 5.7-4 10-4.4 12.9-3 32.3 26 55.7 51.7 55.8"/><path d="M126.9 34.6c-1.7 4.2-12.1 12-16.7 13-18 3.9-29.6-4.7-35.7-14.5-.9-1.4-2.5-5.5-2.8-6.5-2.4-8-1.3-20.3 5.8-26.5-2.1 5.9-2.4 13-1.3 17.5.7 2.8 2.7 7.5 4.8 10.6 3.7 5.5 6.1 6.8 10.9 9.7 2.2 1.3 4.5 2.3 5.5 2.6 4.4 1.1 14 4.7 29.5-5.9"/></symbol>
<symbol id="js-icon" viewBox="0 0 128 128"><title>js-icon icon</title><path d="M18.388 115.115L7.988.015h112l-10.3 115-45.8 13-45.5-12.9zm82.9-6.3l8.7-98.6h-45.9l.3 108.7 36.9-10.1zm-41.5-84.1h-11.1l-.1 59-21.6-5.9v13.5l32.8 8.9v-75.5z" fill="#d4b830"/><path d="M64.088 10.215h45.9l-8.7 98.6-37.2 10.1v-108.7zm34.8 82l3-36.9-22.3 2.5v-19.7l23.8-.1 1-13.4-35.9.2.5 48.9 21.7-3.7-.3 10.9-21.8 5.8.2 13.4 30.1-7.9z" fill="#fdd83c"/></symbol>
<symbol id="less-icon" viewBox="0 0 128 128"><title>less-icon icon</title><path d="M122.5 56.6c0-4.1.6-6.5.6-11 0-6.9-2.5-9.1-8.1-9.1h-4v4.9h1.3c2.8 0 3.5 1 3.5 4.4 0 3.3-.3 6.5-.3 10.3 0 4.9 1.6 6.8 4.7 7.5v.3c-3.2.7-4.7 2.6-4.7 7.5 0 3.8.3 6.9.3 10.3 0 3.6-.7 4.5-3.5 4.5v.1H111v5.1h4.1c5.6 0 8.1-2.2 8.1-9.1 0-4.5-.6-6.9-.6-11 0-2.2 1.4-4.5 5.5-4.8V61c-4.2.1-5.6-2.2-5.6-4.4zM101.4 63c-3.2-1.3-6.1-2-6.1-4.1 0-1.6 1.3-2.5 3.6-2.5s4.4 1 6.7 2.6l4.2-5.6c-2.6-2-6.2-4.1-11-4.1-7.1 0-12 4.1-12 9.9 0 5.2 4.5 7.8 8.3 9.3 3.3 1.3 6.4 2.3 6.4 4.4 0 1.6-1.3 2.6-4.1 2.6-2.6 0-5.3-1.1-8.1-3.3l-4.2 6.1c3.2 2.6 8 4.4 12 4.4 8.4 0 12.9-4.4 12.9-10.2s-4.5-8.1-8.6-9.5zM29.6 74.9c-.7 0-1.7-.6-1.7-2.6V36.6H13c-5.7 0-8.2 2.2-8.2 9.1 0 4.5.6 7.1.6 11 0 2.2-1.4 4.5-5.5 4.8V67c4.1.1 5.5 2.4 5.5 4.6 0 3.9-.6 6.2-.6 10.8 0 6.9 2.5 9.1 8.1 9.1H17v-4.9h-1.3c-2.6 0-3.5-1.1-3.5-4.5 0-3.5.3-6.4.3-10.3 0-4.9-1.6-6.8-4.7-7.5V64c3.2-.7 4.7-2.6 4.7-7.5 0-3.8-.3-6.9-.3-10.3 0-3.5.7-4.4 3.5-4.4h2.8v30.3c0 6.4 2.2 10.7 8.6 10.7 2 0 3.6-.3 4.7-.7l-1.1-6.9c-.4-.3-.7-.3-1.1-.3zM76 63c-3.3-1.3-6.2-2-6.2-4.1 0-1.6 1.3-2.5 3.6-2.5s4.4 1 6.7 2.6l4.2-5.6c-2.6-2-6.2-4.1-11-4.1-7.1 0-12 4.1-12 9.9 0 5.2 4.5 7.8 8.3 9.3 3.3 1.3 6.4 2.3 6.4 4.4 0 1.6-1.3 2.6-4.1 2.6-2.6 0-5.3-1.1-8.1-3.3l-4.1 6.1c3.2 2.6 8 4.4 12 4.4 8.4 0 12.9-4.4 12.9-10.2S80.1 64.4 76 63zM45 49.2c-7.7 0-15 6.4-14.8 16.6 0 10.5 6.8 16.6 15.9 16.6 3.8 0 8-1.4 11.2-3.6l-3.2-5.6c-2.3 1.4-4.5 2-6.8 2-4.2 0-7.5-2-8.3-6.9h19c.1-.7.3-2.2.3-3.9.1-8.6-4.5-15.2-13.3-15.2zm-6 13.3c.6-4.2 3.2-6.2 6.1-6.2 3.8 0 5.3 2.6 5.3 6.2H39z"/></symbol>
<symbol id="svg-icon" viewBox="0 0 128 128"><title>svg-icon icon</title><path d="M41.3 94.4c-2.1 0-3.5-.2-3.9-.5-.5-.3-.7-1.1-.7-2.5V91H33v.7c0 2.3.5 3.8 1.5 4.6 1 .8 3.1 1.1 6.2 1.1 3.4 0 5.7-.4 6.7-1.1 1-.8 1.5-2.5 1.5-5.1 0-2.1-.4-3.5-1.3-4.2-.9-.7-2.8-1.1-5.7-1.3-2.5-.1-3.9-.3-4.4-.6-.4-.3-.7-1-.7-2.2 0-1 .3-1.7.8-2.1.5-.3 1.7-.5 3.5-.5 1.5 0 2.5.1 2.9.4.4.3.6 1 .7 2.1v.4h3.7v-.7c0-2-.5-3.4-1.5-4.1-1-.7-3-1.1-6-1.1-3.1 0-5.2.4-6.3 1.1-1 .8-1.6 2.3-1.6 4.6s.4 3.7 1.3 4.4c.9.7 2.9 1.1 6 1.3l2.1.1c1.2.1 1.9.3 2.3.6.4.3.5.9.5 1.9 0 1.3-.2 2.1-.7 2.5-.5.4-1.5.6-3.2.6zm0 0M61.7 97.2L68 77.5h-4l-3.7 11.2c-.3 1-.7 2.3-1.2 4l-.2 1.3h-.1c-.7-2.5-1.2-4.3-1.5-5.4l-3.7-11.1h-3.9L56 97.2h5.7zm0 0M77.4 97.4c3.7 0 6.1-.4 7.2-1.2 1.1-.8 1.6-2.7 1.6-5.5l-.1-3.9h-8.7v2.8h4.9v.8c0 1.7-.3 2.7-.8 3.2-.6.5-1.9.7-3.9.7-2.1 0-3.4-.3-4-.8-.6-.5-.9-1.8-.9-3.7v-4.5c0-2 .3-3.3.9-3.8.6-.5 2-.8 4.1-.8 2 0 3.2.2 3.7.5s.8 1.1.8 2.4H86c0-2.6-.5-4.2-1.5-5-1-.7-3.3-1.1-6.8-1.1-2.7 0-4.6.2-5.7.7-1.1.5-2 1.4-2.5 2.8-.4 1.1-.7 3.9-.7 8.2 0 3.4.6 5.6 1.7 6.7 1.2.9 3.5 1.5 6.9 1.5zm0 0"/><path d="M20.3 0v69.3H11v36.5l9.3 9.3v13H117V26.8L90.2 0H20.3zm83.1 101.7H15V73.3h88.4v28.4zm-11.2-92l15.1 15.1H92.2V9.7zm0 0"/></symbol>
<symbol id="vue-icon" viewBox="0 0 128 128"><title>vue-icon icon</title><path d="M78.832 8.934L64.032 34.4l-14.8-25.466H.035l63.998 109.998L128.031 8.934h-49.2z" fill="#41b883"/><path d="M78.832 8.934L64.032 34.4l-14.8-25.466H25.634l38.4 65.999L102.43 8.934h-23.6z" fill="#34495e"/></symbol>
</svg>